<?xml version="1.0" encoding="utf-8"?>
<!-- Generator: Adobe Illustrator 27.0.0, SVG Export Plug-In . SVG Version: 6.00 Build 0)  -->
<svg version="1.1" id="Layer_1" xmlns="http://www.w3.org/2000/svg" xmlns:xlink="http://www.w3.org/1999/xlink" x="0px" y="0px"
	 viewBox="0 0 220 55" style="enable-background:new 0 0 220 55;" xml:space="preserve">
<style type="text/css">
	.st0{fill:#FFFFFF;}
	.st1{fill:#231F20;}
</style>
<g>
	<g>
		<circle class="st0" cx="27.4" cy="27.5" r="20"/>
		<g>
			<path class="st1" d="M28.4,27.5c-0.1,0-0.1,0-0.2-0.1c-2.7-5-3.7-13.5-3.7-14.3c0-0.1,0.1-0.2,0.2-0.2c0.1,0,0.2,0.1,0.2,0.2
				c0,0.8,1,9.3,3.7,14.1C28.6,27.3,28.6,27.4,28.4,27.5C28.4,27.4,28.4,27.5,28.4,27.5z"/>
			<path class="st1" d="M27.4,26c-0.1,0-0.1,0-0.2-0.1c-5-6.4-6.5-8-9.1-9c-0.1,0-0.2-0.2-0.1-0.3c0-0.1,0.2-0.2,0.3-0.1
				c2.8,1.1,4.2,2.7,9.3,9.2c0.1,0.1,0.1,0.2,0,0.3C27.5,26,27.4,26,27.4,26z"/>
			<g>
				<ellipse transform="matrix(0.866 -0.5 0.5 0.866 -4.0964 12.1531)" class="st1" cx="20.6" cy="13.7" rx="0.9" ry="0.6"/>
				<path class="st1" d="M20.3,14.8c-0.3,0-0.5-0.1-0.7-0.3c-0.2-0.2-0.2-0.4-0.2-0.6c0-0.3,0.2-0.7,0.6-0.9
					c0.6-0.4,1.3-0.5,1.7-0.1c0.2,0.2,0.2,0.4,0.2,0.6c0,0.3-0.2,0.7-0.6,0.9h0C21,14.7,20.6,14.8,20.3,14.8z M20.9,13.4
					c-0.1,0-0.3,0.1-0.5,0.2c-0.2,0.1-0.3,0.3-0.3,0.4c0.1,0.1,0.4,0.1,0.7-0.1c0.2-0.1,0.3-0.3,0.3-0.4
					C21.1,13.4,21,13.4,20.9,13.4z"/>
			</g>
			<path class="st1" d="M28.1,27.3c-0.1,0-0.1,0-0.2-0.1c-5.4-6.6-8.6-7.3-11.2-7c-0.1,0-0.2-0.1-0.2-0.2c0-0.1,0.1-0.2,0.2-0.2
				c2.8-0.3,6.1,0.4,11.6,7.1c0.1,0.1,0.1,0.2,0,0.3C28.2,27.3,28.2,27.3,28.1,27.3z"/>
			<g>
				<ellipse transform="matrix(0.2044 -0.9789 0.9789 0.2044 -6.3993 32.1652)" class="st1" cx="16.6" cy="20" rx="0.9" ry="0.6"/>
				<path class="st1" d="M16.5,21.2C16.5,21.2,16.4,21.2,16.5,21.2c-0.3,0-0.5-0.1-0.6-0.3c-0.2-0.3-0.3-0.6-0.2-1
					c0.1-0.7,0.6-1.2,1.1-1.1c0.2,0,0.4,0.1,0.5,0.3c0.2,0.3,0.3,0.6,0.2,1C17.4,20.8,17,21.2,16.5,21.2z M16.7,19.6
					c-0.1,0-0.3,0.2-0.3,0.5c0,0.2,0,0.4,0.1,0.4c0.1,0,0.3-0.1,0.3-0.5v0C16.8,19.8,16.8,19.6,16.7,19.6
					C16.7,19.6,16.7,19.6,16.7,19.6z"/>
			</g>
			<path class="st1" d="M27.6,26.4c-0.1,0-0.1,0-0.2-0.1c-2.5-5.1-4.7-8.8-6.6-11.8c-0.1-0.1,0-0.2,0.1-0.3c0.1-0.1,0.2,0,0.3,0.1
				c1.9,3,4.1,6.8,6.6,11.9C27.8,26.2,27.8,26.3,27.6,26.4C27.7,26.4,27.6,26.4,27.6,26.4z"/>
			<g>
				
					<ellipse transform="matrix(0.5792 -0.8152 0.8152 0.5792 -5.8474 21.4181)" class="st1" cx="17.8" cy="16.4" rx="0.9" ry="0.5"/>
				<path class="st1" d="M17.5,17.5c-0.2,0-0.3,0-0.4-0.1c-0.2-0.2-0.3-0.4-0.3-0.8c0-0.3,0.1-0.5,0.3-0.8c0.2-0.3,0.5-0.5,0.9-0.6
					c0.2,0,0.4,0,0.6,0.1c0.2,0.2,0.3,0.4,0.3,0.8c0,0.3-0.1,0.5-0.3,0.8l0,0C18.3,17.3,17.9,17.5,17.5,17.5z M18.1,16
					c-0.1,0-0.3,0.1-0.4,0.3c-0.2,0.3-0.2,0.5-0.1,0.5c0,0,0.2,0,0.4-0.3C18.1,16.2,18.1,16,18.1,16C18.1,16,18.1,16,18.1,16z"/>
			</g>
			<path class="st1" d="M28.9,28.1c-0.1,0-0.1,0-0.2-0.1c-3.2-4.9-2.3-13.3-0.4-15c0.1-0.1,0.2-0.1,0.3,0c0.1,0.1,0.1,0.2,0,0.3
				c-1.8,1.5-2.6,9.8,0.4,14.4c0.1,0.1,0,0.2-0.1,0.3C29,28.1,28.9,28.1,28.9,28.1z"/>
			<g>
				<ellipse transform="matrix(0.9925 -0.1222 0.1222 0.9925 -1.3368 3.0923)" class="st1" cx="24.5" cy="12.4" rx="0.9" ry="0.5"/>
				<path class="st1" d="M24.4,13.4c-0.2,0-0.4,0-0.6-0.1c-0.3-0.1-0.5-0.4-0.5-0.6c-0.1-0.5,0.4-1,1.1-1.1c0.7-0.1,1.3,0.3,1.3,0.8
					c0.1,0.5-0.4,1-1.1,1.1h0C24.6,13.4,24.5,13.4,24.4,13.4z M24.6,12.3c0,0-0.1,0-0.1,0c-0.3,0-0.5,0.2-0.5,0.2
					c0,0,0.2,0.2,0.5,0.1l0,0c0.3,0,0.5-0.2,0.5-0.2C25,12.3,24.9,12.3,24.6,12.3z"/>
			</g>
			<g>
				<ellipse transform="matrix(0.5 -0.866 0.866 0.5 3.2097 31.3434)" class="st1" cx="28.7" cy="12.9" rx="0.5" ry="0.9"/>
				<path class="st1" d="M29,13.9c-0.2,0-0.5-0.1-0.8-0.2c-0.6-0.3-0.9-1-0.6-1.4c0.1-0.2,0.4-0.4,0.7-0.4c0.3,0,0.5,0.1,0.8,0.2
					c0.3,0.1,0.5,0.4,0.6,0.6c0.1,0.3,0.2,0.6,0,0.8C29.7,13.8,29.4,13.9,29,13.9z M28.5,12.6c-0.1,0-0.1,0-0.1,0
					c0,0,0.1,0.2,0.3,0.4c0.3,0.2,0.5,0.1,0.5,0.1c0,0-0.1-0.2-0.3-0.4C28.7,12.6,28.5,12.6,28.5,12.6z"/>
			</g>
			<g>
				<path class="st1" d="M35.4,19.5c0.4,1.9,0.7,3.8,0.8,5.7c0.1,2,0,3.9-0.6,5.7c-0.3,0.9-0.6,1.7-1,2.6c-1.9,3.7-4,5.4-6.3,6.5
					c-1.8,0.9-3.8,1.4-5.8,1.6c-3.5,0.3-6.7-1-7.8-1.4c-0.1,0-0.1-0.2,0-0.2c0.8-0.3,3-1,4.1-1.5c1.7-0.7,3.4-1.5,4.8-2.7
					c2.5-1.9,4.7-4.6,6.1-7.4c0.7-1.3,1.3-2.6,2.5-3.5c1-0.8,2.3-1.3,3.6-1.3c1.2,0,2.5,0.5,3.4,1.3c0.4,0.3,0.7,0.7,1,1.1
					c0.3,0.4,0.6,0.7,1,1.1c1,0.9,2.4,0.9,3.6,1.1c0.3,0,0.3,0.4,0,0.5c-0.8,0.2-1.6,0.2-2.4,0.3c-1.5,0.3-2.9,1-4.4,1.5
					c-1.9,0.6-3.9,0.7-5.7,0c-2.6-0.9-4.5-4-6.7-5.7c-1.7-1.4-3.6-1.8-5.7-2c-2-0.2-5,0.5-6.2,2.1c-0.1,0.1,1.2,0.5,1.3,0.6
					c1,0.6,1.2,0.8,1.7,1.5c0.6,0.9,1.1,1.8,1.7,2.6c0.7,0.8,1.6,1.6,2.5,2.2c1.7,1.2,4.6,2,6.2,0.2c0.6-0.7,1.1-1.5,1.6-2.2
					c0.1-0.1,0.7-1,0.6-1.2c-3.7-3.8-1.5-10.4,2.1-13.5c0.8-0.7,1.7-1.1,2.7-1.6c0.2-0.1,0.3,0,0.3,0.2c0.1,0.6-0.1,1.3,0,1.9
					c0.1,0.7,0.2,1.4,0.4,2C35.1,18.3,35.3,18.9,35.4,19.5z"/>
				<path class="st0" d="M21.5,41.9c-2.9,0-5.4-0.9-6.6-1.4l-0.3-0.1c-0.1,0-0.2-0.2-0.2-0.3c0-0.1,0.1-0.2,0.2-0.3
					c0.9-0.3,3-1,4.1-1.5c1.9-0.8,3.5-1.7,4.8-2.6c1-0.8,2-1.7,2.9-2.7c-1.8,0.8-4.1,0-5.4-0.9c-0.7-0.5-1.8-1.3-2.6-2.3
					c-0.4-0.5-0.8-1.1-1.2-1.7c-0.2-0.3-0.4-0.6-0.6-0.9c-0.5-0.7-0.7-0.9-1.6-1.5c0,0-0.2-0.1-0.3-0.1c-0.9-0.3-1.1-0.4-1.1-0.6
					l0-0.1l0.1-0.1c1.2-1.6,4.2-2.4,6.3-2.2c2,0.2,4,0.5,5.8,2c0.8,0.6,1.5,1.4,2.2,2.2c0,0,0,0,0,0c-0.5-1.1-0.7-2.3-0.6-3.6
					c0.1-3,1.8-6.3,4-8.2c0.8-0.7,1.7-1.1,2.7-1.6c0.1-0.1,0.3-0.1,0.4,0c0.1,0.1,0.2,0.2,0.2,0.3c0,0.3,0,0.6,0,0.9
					c0,0.3,0,0.6,0,0.9c0.1,0.7,0.2,1.4,0.4,2c0.1,0.6,0.3,1.2,0.4,1.8v0c0.3,1.4,0.5,2.7,0.6,4c1.2,0.1,2.3,0.6,3.2,1.3
					c0.4,0.3,0.7,0.7,1,1.1c0.3,0.4,0.6,0.7,1,1c0.8,0.6,1.7,0.8,2.7,0.9c0.3,0,0.5,0.1,0.8,0.1c0.2,0,0.4,0.2,0.4,0.4
					c0,0.2-0.1,0.4-0.3,0.4c-0.4,0.1-0.9,0.1-1.3,0.2c-0.3,0-0.7,0.1-1,0.1c-0.9,0.2-1.8,0.5-2.7,0.9c-0.5,0.2-1.1,0.4-1.7,0.6
					c-0.7,0.2-1.5,0.4-2.5,0.5c-0.3,0.8-0.6,1.6-1,2.5c-2.1,4.1-4.5,5.7-6.4,6.6c-1.7,0.9-3.8,1.4-5.9,1.6
					C22.2,41.8,21.9,41.9,21.5,41.9z M15.1,40.1L15.1,40.1c1.3,0.5,4.2,1.6,7.4,1.3c2-0.2,4-0.7,5.7-1.6c1.9-1,4.2-2.5,6.2-6.5
					c0.4-0.8,0.7-1.5,0.9-2.3c-0.9,0-2-0.1-3-0.5c-1-0.3-1.8-0.9-2.6-1.7c0,0,0,0.1,0,0.1c0,0.1-0.1,0.2-0.2,0.3
					C28,32,26,34.3,23.8,36c-1.3,1-2.9,1.9-4.9,2.7C17.9,39.1,16.1,39.8,15.1,40.1z M14.1,24.9c0.2,0.1,0.6,0.2,0.8,0.3
					c0.2,0.1,0.3,0.1,0.4,0.2c1,0.6,1.2,0.8,1.8,1.6c0.2,0.3,0.4,0.6,0.6,0.9c0.4,0.6,0.7,1.2,1.1,1.7c0.8,0.9,1.8,1.7,2.5,2.2
					c1.5,1.1,4.4,2,6,0.2c0.5-0.5,0.9-1.1,1.3-1.7c0.1-0.2,0.2-0.3,0.3-0.5l0-0.1c0.1-0.2,0.2-0.3,0.3-0.4c0.1-0.1,0.1-0.2,0.2-0.3
					c0-0.1,0.1-0.1,0.1-0.2c-0.1-0.1-0.1-0.2-0.2-0.2c-0.5-0.5-0.9-1-1.4-1.5c-0.7-0.8-1.4-1.5-2.2-2.1c-1.7-1.4-3.7-1.8-5.6-1.9
					C18,22.8,15.3,23.5,14.1,24.9z M29.9,28.7c0.8,0.7,1.6,1.3,2.5,1.6c1,0.4,2,0.5,3,0.4c0.5-1.7,0.7-3.5,0.5-5.5
					c0-0.4-0.1-0.9-0.1-1.3c0,0,0,0,0,0c-1.2,0-2.4,0.4-3.4,1.2C31.3,26,30.7,27.3,29.9,28.7C30,28.6,29.9,28.6,29.9,28.7z
					 M36.3,23.9c0,0.4,0.1,0.9,0.1,1.3c0.1,2,0,3.8-0.5,5.5c0.8-0.1,1.6-0.2,2.2-0.4c0.6-0.2,1.1-0.4,1.7-0.6
					c0.9-0.4,1.8-0.7,2.8-0.9c0.4-0.1,0.7-0.1,1.1-0.1c0.4,0,0.9-0.1,1.3-0.2l0-0.1c-0.3,0-0.5-0.1-0.8-0.1c-1-0.1-2.1-0.3-2.9-1
					c-0.4-0.3-0.7-0.7-1-1.1c-0.3-0.4-0.6-0.8-1-1.1C38.4,24.4,37.3,24,36.3,23.9z M29.5,28.2c0,0,0.1,0.1,0.1,0.1
					c0.7-1.3,1.4-2.6,2.6-3.6c1.1-0.8,2.3-1.3,3.6-1.3c-0.1-1.3-0.3-2.6-0.6-3.9c-0.1-0.6-0.2-1.2-0.4-1.8c-0.1-0.6-0.3-1.3-0.4-2
					c0-0.3,0-0.7,0-1c0-0.3,0-0.6,0-0.9l0,0c-1,0.5-1.8,0.9-2.6,1.5c-2.2,1.9-3.7,5.1-3.9,8C27.8,25.2,28.4,26.9,29.5,28.2z"/>
			</g>
		</g>
	</g>
	<g>
		<path class="st0" d="M69.8,22.5c-0.6-0.4-1.2-0.6-2-0.6c-0.8,0-1.4,0.2-2,0.5c-0.5,0.3-0.9,0.7-1.3,1.3c-0.3,0.5-0.5,1.1-0.7,1.8
			c-0.1,0.7-0.2,1.3-0.2,2c0,0.7,0,1.4,0.1,2.1c0.1,0.7,0.3,1.4,0.6,1.9c0.3,0.6,0.7,1.1,1.2,1.4c0.5,0.4,1.2,0.6,2.1,0.6
			c0.5,0,0.9-0.1,1.3-0.2c0.4-0.1,0.7-0.3,1.1-0.4c0.3-0.2,0.6-0.4,0.9-0.6c0.3-0.2,0.5-0.4,0.7-0.6l0.7,0.4
			c-0.1,0.4-0.2,0.8-0.4,1.2c-0.1,0.4-0.2,0.8-0.3,1.3c-0.6,0.2-1.3,0.4-2.1,0.6c-0.8,0.2-1.7,0.3-2.8,0.3c-1.1,0-2.2-0.2-3.2-0.5
			c-1-0.3-1.9-0.8-2.6-1.5c-0.7-0.7-1.3-1.4-1.7-2.4c-0.4-0.9-0.6-2-0.6-3.2c0-1.3,0.2-2.4,0.7-3.4s1.1-1.8,1.8-2.5s1.7-1.2,2.7-1.5
			c1.1-0.3,2.2-0.5,3.4-0.5c0.8,0,1.7,0.1,2.6,0.3c0.9,0.2,1.7,0.4,2.5,0.7c0,0.2-0.1,0.5-0.2,0.7c-0.1,0.2-0.1,0.5-0.2,0.7
			C72,22.7,72,23,71.9,23.3c0,0.3-0.1,0.6-0.1,0.9H71C70.8,23.4,70.4,22.9,69.8,22.5z"/>
		<path class="st0" d="M85.1,28.7c0.3,0.5,0.6,1,1,1.6c0.3,0.6,0.7,1.1,1.1,1.7c0.4,0.6,0.7,1.1,1.1,1.7c0.4,0.6,0.7,1.1,1.1,1.6
			c-0.5-0.1-1-0.1-1.5-0.1c-0.5,0-1-0.1-1.5-0.1c-0.5,0-0.9,0-1.3,0.1c-0.4,0-0.9,0.1-1.3,0.1c-0.6-1.1-1.1-2.2-1.7-3.3
			c-0.6-1.1-1.2-2.2-1.9-3.3H80c0,0.9,0,2,0,3.1c0,1.2,0.1,2.3,0.1,3.4c-0.4-0.1-0.8-0.1-1.2-0.1c-0.4,0-0.8-0.1-1.3-0.1
			c-0.4,0-0.8,0-1.2,0.1c-0.4,0-0.9,0.1-1.4,0.1c0.1-0.7,0.1-1.6,0.2-2.6c0-1,0.1-2,0.1-3c0-0.5,0-1,0-1.7s0-1.5,0-2.3
			c0-0.8,0-1.7-0.1-2.7c0-0.9-0.1-1.9-0.1-2.8c0.5,0.1,1,0.1,1.5,0.1c0.5,0,1,0,1.4,0c0.7,0,1.3,0,2-0.1c0.7-0.1,1.3-0.1,2-0.1
			c0.7,0,1.4,0,2.1,0.1c0.7,0.1,1.3,0.3,1.9,0.6c0.6,0.3,1,0.7,1.4,1.2c0.4,0.5,0.5,1.2,0.5,2.1c0,1.1-0.3,1.9-0.9,2.5
			c-0.6,0.6-1.4,1-2.4,1.2L85.1,28.7z M80,27.1c0.1,0,0.1,0,0.2,0c0.1,0,0.1,0,0.2,0h0.4c0.9,0,1.5-0.2,1.8-0.7
			c0.3-0.5,0.5-1.1,0.5-1.9c0-0.6-0.1-1.1-0.2-1.4s-0.4-0.6-0.6-0.8C82,22.1,81.8,22,81.5,22s-0.6-0.1-0.8-0.1c-0.1,0-0.2,0-0.3,0
			c-0.1,0-0.2,0-0.3,0V27.1z"/>
		<path class="st0" d="M97.5,33.1c0.2,0,0.5,0,0.8,0c0.3,0,0.7,0,1.1,0c0.4,0,0.7,0,1.1-0.1c0.4,0,0.6,0,0.9-0.1
			c0,0.2-0.1,0.4-0.1,0.6c0,0.2,0,0.4,0,0.6c0,0.2,0,0.4,0,0.5c0,0.2,0,0.4,0.1,0.5c-0.9-0.1-1.7-0.1-2.6-0.1c-0.8,0-1.7,0-2.5,0
			c-0.9,0-1.7,0-2.6,0c-0.9,0-1.7,0.1-2.6,0.1c0-0.3,0.1-0.6,0.1-0.8c0-0.3,0-0.6,0-0.9c0-0.4,0-0.8,0-1.3c0-0.5,0-1.2,0-2v-2.3
			c0-1.1,0-2,0-2.7c0-0.7,0-1.4,0-1.9c0-0.5,0-1.1-0.1-1.5c0-0.5-0.1-1-0.1-1.6c0.7,0.1,1.5,0.1,2.2,0.1c0.7,0,1.5,0.1,2.2,0.1
			c0.4,0,0.9,0,1.4,0c0.5,0,1.1,0,1.6,0c0.5,0,1.1,0,1.6-0.1c0.5,0,0.9-0.1,1.3-0.1c0,0.2-0.1,0.4-0.1,0.6c0,0.2,0,0.4,0,0.6
			c0,0.2,0,0.4,0,0.6c0,0.2,0,0.4,0.1,0.6c-0.5,0-1.1-0.1-1.6-0.1c-0.5,0-1-0.1-1.6-0.1H96v4.1c0.2,0,0.4,0,0.8,0c0.3,0,0.7,0,1.2,0
			c0.5,0,1,0,1.5-0.1c0.5,0,1.1-0.1,1.7-0.1c0,0.2-0.1,0.4-0.1,0.6c0,0.2,0,0.4,0,0.6c0,0.4,0,0.7,0.1,1.1c-0.4,0-0.8-0.1-1.2-0.1
			c-0.4,0-0.8,0-1.2-0.1c-0.4,0-0.8,0-1.3,0c-0.4,0-0.9,0-1.5,0v4.8H97.5z"/>
		<path class="st0" d="M106,35.3c-0.2-0.1-0.5-0.1-0.7-0.1c-0.2,0-0.5-0.1-0.7-0.1c-0.2,0-0.5,0-0.7,0.1c-0.2,0-0.4,0.1-0.6,0.1
			l1.2-2.8c0.2-0.4,0.4-0.9,0.7-1.5c0.2-0.6,0.5-1.1,0.7-1.8c0.3-0.6,0.5-1.3,0.8-2c0.3-0.7,0.6-1.4,0.8-2.1
			c0.2-0.4,0.3-0.8,0.5-1.4c0.2-0.5,0.4-1,0.6-1.5c0.2-0.5,0.4-0.9,0.5-1.3c0.2-0.4,0.3-0.7,0.3-0.9c0.2,0.1,0.5,0.1,0.7,0.1
			c0.3,0,0.5,0.1,0.7,0.1c0.3,0,0.5,0,0.8-0.1c0.3,0,0.5-0.1,0.7-0.1c0.2,0.5,0.4,1.1,0.6,1.8c0.2,0.7,0.5,1.4,0.8,2.1
			c0.3,0.8,0.6,1.5,0.8,2.3c0.3,0.8,0.6,1.5,0.8,2.1c0.3,0.7,0.6,1.4,0.8,2c0.2,0.6,0.5,1.1,0.7,1.6c0.2,0.5,0.4,1,0.7,1.5
			c0.2,0.5,0.5,1.1,0.8,1.7c-0.4-0.1-0.9-0.1-1.4-0.2c-0.5,0-1,0-1.4,0c-0.4,0-0.9,0-1.4,0.1c-0.5,0-0.9,0.1-1.4,0.1
			c-0.1-0.5-0.3-1-0.4-1.5s-0.3-1-0.5-1.5c-0.5,0-0.9,0-1.4,0c-0.5,0-0.9,0-1.4,0c-0.4,0-0.7,0-1.1,0c-0.4,0-0.7,0-1.1,0
			c-0.2,0.5-0.4,1-0.5,1.5C106.3,34.3,106.1,34.8,106,35.3z M107.5,30.4c0.2,0,0.3,0,0.5,0c0.2,0,0.3,0,0.5,0h0.9h0.9
			c0.2,0,0.3,0,0.5,0c0.2,0,0.3,0,0.5,0l-1.8-4.9L107.5,30.4z"/>
		<path class="st0" d="M121.9,22.4c-0.7,0-1.3,0-2,0.1c-0.6,0-1.3,0.1-1.9,0.2c0.1-0.4,0.1-0.8,0.1-1.2c0-0.2,0-0.4,0-0.6
			c0-0.2-0.1-0.4-0.1-0.6c1.1,0.1,2.1,0.2,3.2,0.2c1,0,2.1,0,3.1,0c1,0,2,0,3.1,0c1.1,0,2.1-0.1,3.2-0.2c0,0.2-0.1,0.4-0.1,0.6
			c0,0.2,0,0.4,0,0.7c0,0.2,0,0.4,0,0.6c0,0.2,0.1,0.4,0.1,0.5c-0.6-0.1-1.3-0.1-1.9-0.2c-0.6,0-1.3-0.1-2-0.1c0,0.5,0,1-0.1,1.6
			c0,0.6,0,1.2,0,1.8v1.1c0,0.8,0,1.6,0,2.3c0,0.7,0,1.4,0,2.1c0,0.7,0,1.3,0.1,2c0,0.6,0.1,1.3,0.1,2c-0.7-0.1-1.3-0.1-1.7-0.1
			c-0.4,0-0.7,0-0.9,0c-0.6,0-1.1,0-1.5,0.1c-0.4,0-0.7,0.1-1,0.1c0-0.4,0.1-0.8,0.1-1.3c0-0.5,0.1-1,0.1-1.6c0-0.5,0-1.1,0-1.7
			c0-0.6,0-1.1,0-1.6v-1.9v-0.9c0-0.5,0-1.1,0-1.8C121.9,23.8,121.9,23.1,121.9,22.4z"/>
		<path class="st0" d="M138,31.9c0,1.2,0.1,2.3,0.2,3.4c-0.4-0.1-0.8-0.1-1.3-0.1c-0.5,0-0.9,0-1.4,0c-0.4,0-0.9,0-1.3,0.1
			c-0.4,0-0.8,0.1-1.2,0.1c0.1-1.2,0.1-2.3,0.2-3.5c0-1.1,0.1-2.3,0.1-3.5c0-0.3,0-0.6,0-1c0-0.4,0-0.8,0-1.3c0-0.4,0-0.9,0-1.3
			c0-0.4,0-0.8,0-1c0-0.5,0-1,0-1.7c0-0.6-0.1-1.2-0.1-1.8c0.4,0,0.8,0.1,1.3,0.1c0.5,0,0.9,0.1,1.3,0.1c0.4,0,0.9,0,1.3-0.1
			c0.5,0,0.9-0.1,1.2-0.1c-0.1,1-0.1,2-0.2,3c0,1-0.1,2-0.1,3v2.1C138,29.5,138,30.7,138,31.9z"/>
		<path class="st0" d="M144.4,27.1c-0.3-0.3-0.6-0.6-0.9-1v2.2c0,0.4,0,0.9,0,1.5c0,0.6,0,1.2,0.1,1.8c0,0.6,0.1,1.3,0.1,1.9
			c0,0.6,0.1,1.2,0.1,1.7c-0.2-0.1-0.4-0.1-0.6-0.1c-0.2,0-0.4-0.1-0.7-0.1c-0.2,0-0.5,0-0.7,0.1c-0.2,0-0.5,0.1-0.7,0.1
			c0.1-0.6,0.1-1.2,0.2-1.9c0-0.7,0.1-1.4,0.1-2c0-0.7,0.1-1.4,0.1-2c0-0.7,0-1.3,0-1.9c0-1.2,0-2.4,0-3.6c0-1.2-0.1-2.3-0.1-3.6
			c0.3,0.1,0.6,0.1,0.9,0.1c0.3,0,0.6,0.1,0.9,0.1c0.3,0,0.6,0,0.8-0.1c0.3,0,0.5-0.1,0.8-0.1c0.4,0.5,0.8,1.1,1.3,1.6
			c0.5,0.5,0.9,1.1,1.4,1.6c0.4,0.5,0.9,1,1.3,1.4c0.4,0.4,0.8,0.8,1.1,1.2c0.3,0.3,0.6,0.6,0.8,0.9c0.2,0.3,0.5,0.5,0.7,0.8
			s0.5,0.5,0.7,0.8c0.2,0.3,0.5,0.5,0.8,0.8c0-0.6,0-1.2,0-1.8s0-1.2-0.1-1.8c0-0.5,0-1,0-1.5c0-0.5,0-0.9-0.1-1.3
			c0-0.4,0-0.9-0.1-1.3c0-0.4,0-0.9-0.1-1.3c0.3,0.1,0.5,0.1,0.7,0.1c0.2,0,0.4,0,0.7,0c0.2,0,0.5,0,0.7,0c0.2,0,0.4-0.1,0.6-0.1
			c0,0.5-0.1,1.1-0.1,1.6c0,0.5-0.1,1.1-0.1,1.6c-0.1,1.4-0.1,2.9-0.1,4.3c0,1.4,0,2.8,0,4.3c0,0.6,0,1.1,0,1.7c0,0.6,0,1.1,0.1,1.7
			c-0.2-0.1-0.5-0.1-0.8-0.1c-0.3,0-0.6-0.1-0.9-0.1c-0.3,0-0.6,0-0.9,0.1c-0.3,0-0.5,0.1-0.7,0.1c-0.5-0.6-0.9-1.1-1.4-1.6
			c-0.4-0.5-0.8-1-1.3-1.5c-0.4-0.5-0.8-0.9-1.2-1.4c-0.4-0.4-0.8-0.9-1.2-1.4l-1.2-1.3C145,27.8,144.7,27.5,144.4,27.1z"/>
		<path class="st0" d="M169,22.5c-0.6-0.4-1.4-0.6-2.3-0.6c-0.9,0-1.6,0.2-2.1,0.5c-0.6,0.4-1,0.8-1.3,1.4c-0.3,0.6-0.6,1.2-0.7,1.9
			c-0.1,0.7-0.2,1.4-0.2,2.1c0,2,0.3,3.4,0.9,4.4c0.6,0.9,1.6,1.4,3,1.4c0.2,0,0.4,0,0.6-0.1c0.2,0,0.4-0.1,0.6-0.1
			c0-0.8,0-1.7,0-2.5c0-0.8-0.1-1.6-0.1-2.5c0.4,0.1,0.8,0.1,1.2,0.1c0.4,0,0.8,0.1,1.2,0.1c0.4,0,0.8,0,1.2,0
			c0.4,0,0.8-0.1,1.2-0.2c0,0.9-0.1,1.8-0.1,2.5c0,0.8,0,1.5,0,2.2c0,0.2,0,0.4,0,0.7c0,0.3,0,0.5,0,0.6c-0.4,0.1-0.9,0.2-1.3,0.3
			c-0.5,0.1-1,0.2-1.5,0.3c-0.5,0.1-1,0.2-1.6,0.2c-0.5,0-1,0.1-1.5,0.1c-1.2,0-2.3-0.2-3.4-0.5c-1.1-0.3-2-0.8-2.8-1.4
			c-0.8-0.6-1.4-1.5-1.9-2.4s-0.7-2.1-0.7-3.3c0-1.2,0.2-2.2,0.7-3.2c0.4-1,1.1-1.8,1.8-2.4c0.8-0.7,1.7-1.2,2.8-1.6
			c1.1-0.4,2.3-0.5,3.5-0.5c1,0,2,0.1,3.1,0.3c1,0.2,2,0.5,2.9,0.9c-0.2,0.6-0.4,1.1-0.6,1.6s-0.3,1-0.4,1.6h-0.8
			C170,23.5,169.6,22.9,169,22.5z"/>
		<path class="st0" d="M181.3,28.3c0-0.2,0-0.5,0-0.9c0-0.4,0-0.9,0-1.4c0-0.5,0-1,0-1.4c0-0.4,0-0.7,0-0.9c0-0.5,0-1,0-1.6
			c0-0.6-0.1-1.2-0.1-1.9c0.4,0,0.8,0.1,1.3,0.1c0.5,0,0.9,0.1,1.3,0.1c0.4,0,0.8,0,1.3-0.1c0.5,0,0.9-0.1,1.3-0.1
			c0,0.5-0.1,1-0.1,1.5c0,0.5-0.1,1.1-0.1,1.6c0,0.5,0,1,0,1.5c0,0.5,0,0.9,0,1.3c0.3,0,0.7,0,1.1,0c0.4,0,0.8,0,1.2,0
			c0.4,0,0.8,0,1.2,0c0.4,0,0.8,0,1.2,0c0-0.4,0-0.9,0-1.4c0-0.5,0-1,0-1.5s0-1-0.1-1.6c0-0.5-0.1-1-0.1-1.5c0.4,0,0.8,0.1,1.3,0.1
			s0.9,0.1,1.3,0.1c0.4,0,0.8,0,1.3-0.1c0.5,0,0.9-0.1,1.3-0.1c-0.1,0.9-0.1,1.8-0.2,2.7c0,0.9-0.1,2-0.1,3.3c0,0.9,0,1.8,0,2.6
			c0,0.8,0,1.5,0.1,2.2c0,0.7,0,1.4,0.1,2.1c0,0.7,0,1.4,0.1,2.2c-0.9-0.1-1.8-0.2-2.8-0.2c-0.4,0-0.8,0-1.2,0.1
			c-0.4,0-0.8,0.1-1.2,0.1c0.1-0.5,0.1-1,0.1-1.7c0-0.7,0.1-1.3,0.1-2c0-0.7,0-1.3,0-1.9s0-1.1,0-1.4c-0.4,0-0.8,0-1.2,0
			c-0.4,0-0.8,0-1.2,0c-0.4,0-0.8,0-1.2,0c-0.4,0-0.8,0-1.2,0c0,0.4,0,0.9,0,1.5c0,0.6,0,1.2,0,1.9c0,0.7,0,1.3,0.1,2
			s0.1,1.2,0.1,1.7c-0.4-0.1-0.9-0.1-1.3-0.1c-0.4,0-0.9,0-1.3,0c-0.5,0-1,0-1.4,0.1c-0.4,0-0.8,0.1-1.1,0.1l0.1-1.1
			c0-0.3,0.1-0.7,0.1-1.2c0-0.5,0-1,0-1.5c0-0.5,0-1.1,0-1.7C181.2,29.3,181.3,28.8,181.3,28.3z"/>
		<path class="st0" d="M200.2,35.3c-0.2-0.1-0.5-0.1-0.7-0.1c-0.2,0-0.5-0.1-0.7-0.1c-0.2,0-0.5,0-0.7,0.1c-0.2,0-0.4,0.1-0.6,0.1
			l1.2-2.8c0.2-0.4,0.4-0.9,0.7-1.5c0.2-0.6,0.5-1.1,0.7-1.8c0.3-0.6,0.5-1.3,0.8-2c0.3-0.7,0.6-1.4,0.8-2.1
			c0.2-0.4,0.3-0.8,0.5-1.4c0.2-0.5,0.4-1,0.6-1.5c0.2-0.5,0.4-0.9,0.5-1.3c0.2-0.4,0.3-0.7,0.3-0.9c0.2,0.1,0.5,0.1,0.7,0.1
			c0.3,0,0.5,0.1,0.7,0.1c0.3,0,0.5,0,0.8-0.1c0.3,0,0.5-0.1,0.7-0.1c0.2,0.5,0.4,1.1,0.6,1.8c0.2,0.7,0.5,1.4,0.8,2.1
			c0.3,0.8,0.6,1.5,0.8,2.3c0.3,0.8,0.6,1.5,0.8,2.1c0.3,0.7,0.6,1.4,0.8,2c0.2,0.6,0.5,1.1,0.7,1.6c0.2,0.5,0.4,1,0.7,1.5
			c0.2,0.5,0.5,1.1,0.8,1.7c-0.4-0.1-0.9-0.1-1.4-0.2c-0.5,0-1,0-1.4,0c-0.4,0-0.9,0-1.4,0.1c-0.5,0-0.9,0.1-1.4,0.1
			c-0.1-0.5-0.3-1-0.4-1.5c-0.1-0.5-0.3-1-0.5-1.5c-0.5,0-0.9,0-1.4,0c-0.5,0-0.9,0-1.4,0c-0.4,0-0.7,0-1.1,0c-0.4,0-0.7,0-1.1,0
			c-0.2,0.5-0.4,1-0.5,1.5C200.5,34.3,200.4,34.8,200.2,35.3z M201.8,30.4c0.2,0,0.3,0,0.5,0c0.2,0,0.3,0,0.5,0h0.9h0.9
			c0.2,0,0.3,0,0.5,0c0.2,0,0.3,0,0.5,0l-1.8-4.9L201.8,30.4z"/>
	</g>
</g>
</svg>
