<?xml version="1.0" encoding="utf-8"?>
<!-- Generator: Adobe Illustrator 26.1.0, SVG Export Plug-In . SVG Version: 6.00 Build 0)  -->
<svg version="1.1" id="Layer_1" xmlns="http://www.w3.org/2000/svg" xmlns:xlink="http://www.w3.org/1999/xlink" x="0px" y="0px"
	 viewBox="0 0 220 55" style="enable-background:new 0 0 220 55;" xml:space="preserve">
<style type="text/css">
	.st0{fill:#9FACAB;}
	.st1{fill:none;stroke:#F8E200;stroke-width:0.4105;stroke-linecap:round;stroke-miterlimit:10;}
	.st2{fill:#FEC558;stroke:#FEC558;stroke-width:0.7417;stroke-miterlimit:10.0001;}
	.st3{fill:#FEC558;stroke:#FEC558;stroke-width:0.7417;stroke-miterlimit:9.9999;}
	.st4{fill:#FEC558;stroke:#FEC558;stroke-width:0.7417;stroke-miterlimit:9.9998;}
	.st5{fill:#FCF7EE;stroke:#9FACAB;stroke-width:0.4105;stroke-miterlimit:10;}
	.st6{fill:#1A322F;}
</style>
<g>
	<g>
		<g>
			<circle class="st0" cx="27.3" cy="27.5" r="20"/>
		</g>
		<path class="st1" d="M28.2,27.2c-2.7-4.8-3.7-13.3-3.7-14.2"/>
		<path class="st1" d="M18.1,16.7c2.8,1.1,4.2,2.8,9.2,9.1"/>
		<path class="st1" d="M28,27.1c-5.4-6.6-8.7-7.4-11.4-7.1"/>
		<ellipse transform="matrix(0.2044 -0.9789 0.9789 0.2044 -6.4969 32.0243)" class="st2" cx="16.5" cy="20" rx="0.9" ry="0.6"/>
		<path class="st1" d="M27.5,26.2c-2.5-5.2-4.8-9.1-6.6-11.9"/>
		<ellipse transform="matrix(0.5792 -0.8152 0.8152 0.5792 -5.8732 21.3895)" class="st2" cx="17.8" cy="16.4" rx="0.9" ry="0.5"/>
		<path class="st1" d="M28.8,27.8c-3.1-4.7-2.2-13.1-0.4-14.6"/>
		<ellipse transform="matrix(0.9925 -0.1222 0.1222 0.9925 -1.3418 3.0822)" class="st3" cx="24.5" cy="12.5" rx="0.9" ry="0.5"/>
		<ellipse transform="matrix(0.5 -0.866 0.866 0.5 3.1201 31.2586)" class="st4" cx="28.6" cy="12.9" rx="0.5" ry="0.9"/>
		<path class="st5" d="M35.3,19.5c0.4,1.9,0.7,3.8,0.8,5.7c0.1,2,0,3.9-0.6,5.7c-0.3,0.9-0.6,1.7-1,2.6c-1.9,3.7-4,5.4-6.3,6.5
			c-1.8,0.9-3.8,1.4-5.8,1.6c-3.5,0.3-6.7-1-7.8-1.4c-0.1,0-0.1-0.2,0-0.2c0.8-0.3,3-1,4.1-1.5c1.7-0.7,3.4-1.6,4.8-2.7
			c2.5-1.9,4.7-4.6,6.1-7.4c0.7-1.3,1.3-2.6,2.5-3.6c1-0.8,2.3-1.3,3.6-1.3c1.2,0,2.5,0.5,3.4,1.3c0.4,0.3,0.7,0.7,1,1.1
			c0.3,0.4,0.6,0.7,1,1.1c1,0.9,2.4,0.9,3.6,1.1c0.3,0,0.3,0.4,0,0.5c-0.8,0.2-1.6,0.2-2.4,0.3c-1.5,0.3-3,1-4.4,1.5
			c-1.9,0.6-3.9,0.7-5.7,0c-2.6-0.9-4.5-4-6.7-5.7c-1.7-1.4-3.6-1.8-5.7-2c-2-0.2-5,0.5-6.2,2.1c-0.1,0.1,1.2,0.5,1.3,0.6
			c1,0.6,1.2,0.8,1.7,1.5c0.6,0.9,1.1,1.8,1.7,2.6c0.7,0.8,1.6,1.6,2.5,2.2c1.7,1.2,4.6,2,6.3,0.2c0.6-0.7,1.1-1.5,1.6-2.2
			c0.1-0.1,0.7-1,0.6-1.2c-3.7-3.8-1.5-10.5,2.1-13.5c0.8-0.7,1.7-1.1,2.7-1.6c0.1-0.1,0.3,0,0.3,0.2c0.1,0.6-0.1,1.3,0,1.9
			c0.1,0.7,0.2,1.3,0.4,2C35,18.3,35.2,18.9,35.3,19.5z"/>
		<ellipse transform="matrix(0.866 -0.5 0.5 0.866 -4.1184 12.1272)" class="st4" cx="20.6" cy="13.7" rx="0.9" ry="0.6"/>
	</g>
	<g>
		<path class="st6" d="M69.8,22.5c-0.6-0.4-1.2-0.6-2-0.6c-0.8,0-1.4,0.2-2,0.5c-0.5,0.3-0.9,0.7-1.3,1.3c-0.3,0.5-0.5,1.1-0.7,1.8
			s-0.2,1.3-0.2,2c0,0.7,0.1,1.4,0.1,2.1s0.3,1.4,0.6,2s0.7,1.1,1.2,1.4c0.5,0.4,1.2,0.6,2.1,0.6c0.5,0,0.9-0.1,1.3-0.2
			c0.4-0.1,0.7-0.3,1.1-0.4c0.3-0.2,0.6-0.4,0.9-0.6c0.3-0.2,0.5-0.4,0.7-0.6l0.7,0.4c-0.1,0.4-0.2,0.8-0.4,1.2
			c-0.1,0.4-0.2,0.8-0.3,1.3c-0.6,0.2-1.3,0.4-2.1,0.6c-0.8,0.2-1.7,0.3-2.8,0.3c-1.1,0-2.2-0.2-3.2-0.5c-1-0.3-1.9-0.8-2.6-1.5
			c-0.7-0.7-1.3-1.4-1.7-2.4c-0.4-0.9-0.6-2-0.6-3.2c0-1.3,0.2-2.4,0.7-3.4c0.5-1,1.1-1.8,1.8-2.5c0.8-0.7,1.7-1.2,2.8-1.5
			c1.1-0.3,2.2-0.5,3.4-0.5c0.8,0,1.7,0.1,2.6,0.3c0.9,0.2,1.7,0.4,2.5,0.7c0,0.2-0.1,0.5-0.2,0.7c-0.1,0.2-0.1,0.5-0.2,0.7
			c-0.1,0.3-0.1,0.6-0.2,0.9c0,0.3-0.1,0.6-0.1,0.9h-0.8C70.7,23.4,70.3,22.8,69.8,22.5z"/>
		<path class="st6" d="M85,28.7c0.3,0.5,0.6,1,1,1.6c0.3,0.6,0.7,1.1,1.1,1.7c0.4,0.6,0.7,1.1,1.1,1.7c0.4,0.6,0.7,1.1,1.1,1.6
			c-0.5-0.1-1-0.1-1.5-0.1c-0.5,0-1-0.1-1.5-0.1c-0.5,0-0.9,0-1.3,0.1c-0.4,0-0.9,0.1-1.3,0.1c-0.6-1.1-1.1-2.2-1.7-3.3
			c-0.6-1.1-1.2-2.2-1.9-3.3h-0.1c0,0.9,0,2,0,3.1c0,1.2,0.1,2.3,0.1,3.4c-0.4-0.1-0.8-0.1-1.2-0.1c-0.4,0-0.8-0.1-1.3-0.1
			c-0.4,0-0.8,0-1.2,0.1c-0.4,0-0.9,0.1-1.4,0.1c0.1-0.7,0.1-1.6,0.2-2.6c0-1,0.1-2,0.1-3c0-0.5,0-1,0-1.7c0-0.7,0-1.5,0-2.3
			c0-0.8,0-1.7-0.1-2.7c0-0.9-0.1-1.9-0.1-2.8c0.5,0.1,1,0.1,1.5,0.1c0.5,0,0.9,0,1.4,0c0.7,0,1.3,0,2-0.1c0.7-0.1,1.3-0.1,2-0.1
			c0.7,0,1.4,0.1,2.1,0.1c0.7,0.1,1.3,0.3,1.9,0.6c0.6,0.3,1,0.7,1.4,1.2c0.4,0.5,0.5,1.2,0.5,2.1c0,1.1-0.3,1.9-0.9,2.5
			c-0.6,0.6-1.4,1-2.4,1.2L85,28.7z M79.9,27.1c0.1,0,0.1,0,0.2,0c0.1,0,0.1,0,0.2,0h0.4c0.9,0,1.5-0.2,1.8-0.7
			c0.3-0.5,0.5-1.1,0.5-2c0-0.6-0.1-1.1-0.2-1.4c-0.2-0.3-0.4-0.6-0.6-0.8C82,22.1,81.7,22,81.4,22c-0.3,0-0.6-0.1-0.8-0.1
			c-0.1,0-0.2,0-0.3,0c-0.1,0-0.2,0-0.3,0L79.9,27.1L79.9,27.1z"/>
		<path class="st6" d="M97.4,33.1c0.2,0,0.5,0,0.8,0c0.3,0,0.7,0,1.1,0s0.7,0,1.1-0.1c0.4,0,0.7,0,0.9-0.1c0,0.2-0.1,0.4-0.1,0.6
			c0,0.2,0,0.4,0,0.6c0,0.2,0,0.4,0,0.5c0,0.2,0,0.4,0.1,0.5c-0.9-0.1-1.7-0.1-2.6-0.1c-0.9,0-1.7,0-2.5,0c-0.9,0-1.7,0-2.6,0
			c-0.9,0-1.7,0.1-2.6,0.1c0-0.3,0.1-0.6,0.1-0.8c0-0.3,0-0.6,0-0.9c0-0.4,0-0.8,0-1.3s0-1.2,0-2v-2.3c0-1.1,0-2,0-2.8
			c0-0.7,0-1.4,0-1.9c0-0.5,0-1.1-0.1-1.5c0-0.5-0.1-1-0.1-1.6c0.7,0.1,1.5,0.1,2.2,0.1c0.7,0,1.5,0.1,2.2,0.1c0.4,0,0.9,0,1.4,0
			s1.1,0,1.6,0c0.5,0,1.1,0,1.6-0.1c0.5,0,0.9-0.1,1.3-0.1c0,0.2-0.1,0.4-0.1,0.6c0,0.2,0,0.4,0,0.6c0,0.2,0,0.4,0,0.6
			c0,0.2,0,0.4,0.1,0.6c-0.5,0-1.1-0.1-1.6-0.1c-0.5,0-1-0.1-1.6-0.1H96v4.1c0.2,0,0.4,0,0.8,0s0.7,0,1.2,0c0.5,0,1,0,1.5-0.1
			s1.1-0.1,1.7-0.1c0,0.2-0.1,0.4-0.1,0.6c0,0.2,0,0.4,0,0.6c0,0.4,0,0.7,0.1,1.1c-0.4,0-0.8-0.1-1.2-0.1c-0.4,0-0.8,0-1.2-0.1
			c-0.4,0-0.8,0-1.3,0c-0.5,0-0.9,0-1.5,0v4.8L97.4,33.1L97.4,33.1z"/>
		<path class="st6" d="M106,35.3c-0.2-0.1-0.5-0.1-0.7-0.1c-0.2,0-0.5-0.1-0.7-0.1c-0.2,0-0.5,0-0.7,0.1c-0.2,0-0.4,0.1-0.6,0.1
			l1.2-2.8c0.2-0.4,0.4-0.9,0.7-1.5s0.5-1.1,0.7-1.8c0.3-0.6,0.5-1.3,0.8-2c0.3-0.7,0.6-1.4,0.8-2.1c0.2-0.4,0.3-0.8,0.5-1.4
			c0.2-0.5,0.4-1,0.6-1.5c0.2-0.5,0.3-0.9,0.5-1.3c0.2-0.4,0.3-0.7,0.3-0.9c0.2,0.1,0.5,0.1,0.7,0.1c0.3,0,0.5,0.1,0.7,0.1
			c0.3,0,0.5,0,0.8-0.1c0.3,0,0.5-0.1,0.7-0.1c0.2,0.5,0.3,1.1,0.6,1.8c0.2,0.7,0.5,1.4,0.8,2.2c0.3,0.7,0.6,1.5,0.8,2.3
			c0.3,0.7,0.6,1.5,0.8,2.1c0.3,0.7,0.6,1.4,0.8,2c0.2,0.6,0.5,1.1,0.7,1.6c0.2,0.5,0.4,1,0.7,1.6c0.2,0.5,0.5,1.1,0.8,1.7
			c-0.4-0.1-0.9-0.1-1.4-0.2c-0.5,0-1,0-1.4,0c-0.5,0-0.9,0-1.4,0.1c-0.5,0-0.9,0.1-1.4,0.1c-0.1-0.5-0.3-1-0.4-1.5s-0.3-1-0.5-1.5
			c-0.5,0-0.9,0-1.4,0s-0.9,0-1.4,0c-0.4,0-0.7,0-1.1,0s-0.7,0-1.1,0c-0.2,0.5-0.4,1-0.5,1.5C106.3,34.3,106.1,34.8,106,35.3z
			 M107.5,30.4c0.2,0,0.3,0,0.5,0c0.2,0,0.3,0,0.5,0h0.9h0.9c0.2,0,0.3,0,0.5,0c0.2,0,0.3,0,0.5,0l-1.8-4.9L107.5,30.4z"/>
		<path class="st6" d="M121.9,22.4c-0.7,0-1.3,0-2,0.1c-0.6,0-1.3,0.1-1.9,0.2c0.1-0.4,0.1-0.8,0.1-1.2c0-0.2,0-0.4,0-0.6
			c0-0.2-0.1-0.4-0.1-0.6c1.1,0.1,2.1,0.2,3.2,0.2c1,0,2.1,0,3.2,0c1,0,2,0,3.1,0c1.1,0,2.1-0.1,3.2-0.2c0,0.2-0.1,0.4-0.1,0.6
			c0,0.2,0,0.5,0,0.7c0,0.2,0,0.4,0,0.6s0.1,0.4,0.1,0.5c-0.6-0.1-1.3-0.1-1.9-0.2c-0.6,0-1.3-0.1-2-0.1c0,0.5,0,1-0.1,1.6
			c0,0.6,0,1.2,0,1.8v1.1c0,0.8,0,1.6,0,2.3c0,0.7,0,1.4,0,2.1c0,0.7,0,1.3,0.1,2c0,0.6,0.1,1.3,0.1,2c-0.7-0.1-1.3-0.1-1.7-0.1
			c-0.4,0-0.7-0.1-0.9-0.1c-0.6,0-1.1,0-1.5,0.1c-0.4,0.1-0.7,0.1-1,0.1c0-0.4,0.1-0.8,0.1-1.3c0-0.5,0.1-1,0.1-1.6
			c0-0.5,0-1.1,0-1.7c0-0.6,0-1.1,0-1.6v-1.9v-0.9c0-0.5,0-1.1,0-1.8C121.9,23.8,121.9,23.1,121.9,22.4z"/>
		<path class="st6" d="M138.1,31.9c0,1.2,0.1,2.4,0.2,3.4c-0.4-0.1-0.8-0.1-1.3-0.1c-0.5,0-0.9,0-1.4,0s-0.9,0-1.3,0.1
			c-0.4,0-0.8,0.1-1.2,0.1c0.1-1.2,0.1-2.3,0.2-3.5c0-1.1,0.1-2.3,0.1-3.5c0-0.3,0-0.6,0-1s0-0.8,0-1.3c0-0.5,0-0.9,0-1.3
			c0-0.4,0-0.8,0-1c0-0.5,0-1,0-1.7c0-0.6-0.1-1.2-0.1-1.8c0.4,0,0.8,0.1,1.3,0.1c0.5,0,0.9,0.1,1.3,0.1c0.4,0,0.9,0,1.3-0.1
			s0.9-0.1,1.2-0.1c-0.1,1-0.1,2-0.2,3c0,1-0.1,2-0.1,3v2.1C138,29.5,138,30.7,138.1,31.9z"/>
		<path class="st6" d="M144.4,27.1c-0.3-0.3-0.6-0.6-0.9-1v2.2c0,0.4,0,0.9,0,1.5s0,1.2,0.1,1.8s0.1,1.3,0.1,1.9
			c0,0.6,0.1,1.2,0.1,1.7c-0.2-0.1-0.4-0.1-0.6-0.1c-0.2,0-0.4-0.1-0.7-0.1c-0.2,0-0.5,0-0.7,0.1c-0.2,0-0.5,0.1-0.7,0.1
			c0.1-0.6,0.1-1.2,0.2-1.9c0-0.7,0.1-1.4,0.1-2c0-0.7,0.1-1.4,0.1-2c0-0.7,0-1.3,0-1.9c0-1.2,0-2.4,0-3.6c0-1.2-0.1-2.4-0.1-3.6
			c0.3,0.1,0.6,0.1,0.9,0.1c0.3,0,0.6,0.1,0.9,0.1c0.3,0,0.6,0,0.8-0.1c0.3,0,0.5-0.1,0.8-0.1c0.4,0.5,0.8,1.1,1.3,1.6
			c0.5,0.5,0.9,1.1,1.4,1.6c0.5,0.5,0.9,1,1.3,1.4c0.4,0.5,0.8,0.8,1.1,1.2c0.3,0.3,0.6,0.6,0.8,0.9c0.2,0.3,0.5,0.5,0.7,0.8
			c0.2,0.3,0.5,0.5,0.7,0.8c0.2,0.3,0.5,0.5,0.8,0.8c0-0.6,0-1.2,0-1.8c0-0.6,0-1.2-0.1-1.8c0-0.5,0-1,0-1.5c0-0.5,0-0.9-0.1-1.3
			c0-0.4,0-0.9-0.1-1.3s0-0.9-0.1-1.3c0.3,0.1,0.5,0.1,0.7,0.1c0.2,0,0.4,0,0.7,0c0.2,0,0.5,0,0.7,0c0.2,0,0.4-0.1,0.6-0.1
			c0,0.5-0.1,1.1-0.1,1.6c0,0.5-0.1,1.1-0.1,1.6c-0.1,1.4-0.1,2.9-0.1,4.3c0,1.4,0,2.8,0,4.3c0,0.6,0,1.1,0,1.7c0,0.6,0,1.1,0.1,1.7
			c-0.2-0.1-0.5-0.1-0.8-0.1c-0.3,0-0.6-0.1-0.9-0.1c-0.3,0-0.6,0-0.9,0.1c-0.3,0-0.5,0.1-0.7,0.1c-0.5-0.6-0.9-1.1-1.4-1.6
			c-0.4-0.5-0.9-1-1.3-1.5c-0.4-0.5-0.8-0.9-1.2-1.4c-0.4-0.5-0.8-0.9-1.2-1.4l-1.2-1.3C145,27.8,144.7,27.5,144.4,27.1z"/>
		<path class="st6" d="M169,22.5c-0.6-0.4-1.4-0.6-2.3-0.6c-0.9,0-1.6,0.2-2.1,0.5c-0.6,0.3-1,0.8-1.3,1.4s-0.6,1.2-0.7,1.9
			c-0.1,0.7-0.2,1.4-0.2,2.2c0,2,0.3,3.4,0.9,4.4c0.6,0.9,1.6,1.4,3,1.4c0.2,0,0.5,0,0.6-0.1c0.2,0,0.4-0.1,0.6-0.1
			c0-0.8,0-1.7,0-2.5s-0.1-1.6-0.1-2.5c0.4,0.1,0.8,0.1,1.2,0.1c0.4,0,0.8,0.1,1.2,0.1c0.4,0,0.8,0,1.2,0c0.4,0,0.8-0.1,1.2-0.2
			c0,0.9-0.1,1.8-0.1,2.5c0,0.8,0,1.5,0,2.2c0,0.2,0,0.4,0,0.7c0,0.3,0,0.5,0,0.6c-0.4,0.1-0.9,0.2-1.3,0.3c-0.5,0.1-1,0.2-1.5,0.3
			s-1,0.1-1.6,0.2c-0.5,0.1-1,0.1-1.5,0.1c-1.2,0-2.3-0.2-3.4-0.5s-2-0.8-2.8-1.4s-1.4-1.5-1.9-2.4c-0.5-1-0.7-2.1-0.7-3.3
			c0-1.2,0.2-2.2,0.7-3.2c0.4-1,1.1-1.8,1.8-2.4s1.7-1.2,2.8-1.6c1.1-0.4,2.3-0.5,3.5-0.5c1,0,2,0.1,3.1,0.3c1,0.2,2,0.5,2.9,0.9
			c-0.2,0.6-0.4,1.1-0.6,1.6c-0.1,0.5-0.3,1-0.4,1.6h-0.8C170.1,23.5,169.6,22.9,169,22.5z"/>
		<path class="st6" d="M181.3,28.3c0-0.2,0-0.5,0-0.9c0-0.4,0-0.9,0-1.4c0-0.5,0-1,0-1.4c0-0.4,0-0.7,0-0.9c0-0.5,0-1,0-1.6
			s-0.1-1.2-0.1-1.9c0.4,0,0.8,0.1,1.3,0.1c0.5,0,0.9,0.1,1.3,0.1c0.4,0,0.8,0,1.3-0.1c0.5,0,0.9-0.1,1.3-0.1c0,0.5-0.1,1-0.1,1.5
			c0,0.5-0.1,1.1-0.1,1.6c0,0.5,0,1,0,1.5c0,0.5,0,0.9,0,1.3c0.3,0,0.7,0,1.1,0c0.4,0,0.8,0,1.2,0c0.4,0,0.7,0,1.2,0
			c0.4,0,0.8,0,1.2,0c0-0.4,0-0.9,0-1.4c0-0.5,0-1,0-1.5s0-1-0.1-1.6c0-0.5-0.1-1-0.1-1.5c0.4,0,0.8,0.1,1.3,0.1
			c0.5,0,0.9,0.1,1.3,0.1s0.8,0,1.3-0.1c0.5,0,0.9-0.1,1.3-0.1c-0.1,0.9-0.1,1.8-0.2,2.7c0,0.9-0.1,2-0.1,3.3c0,0.9,0,1.8,0,2.6
			c0,0.8,0,1.5,0.1,2.2c0,0.7,0,1.4,0.1,2.1c0,0.7,0,1.4,0.1,2.2c-0.9-0.1-1.8-0.2-2.8-0.2c-0.4,0-0.8,0-1.2,0.1
			c-0.4,0-0.8,0.1-1.2,0.1c0.1-0.5,0.1-1,0.1-1.7c0-0.7,0.1-1.3,0.1-2c0-0.7,0-1.3,0-1.9c0-0.6,0-1.1,0-1.4c-0.4,0-0.8,0-1.2,0
			c-0.4,0-0.8,0-1.2,0c-0.4,0-0.7,0-1.2,0c-0.4,0-0.8,0-1.2,0c0,0.4,0,0.9,0,1.5c0,0.6,0,1.2,0,1.9c0,0.7,0,1.3,0.1,2
			s0.1,1.2,0.1,1.7c-0.4-0.1-0.9-0.1-1.3-0.1c-0.4,0-0.9,0-1.3,0c-0.5,0-1,0-1.4,0.1c-0.4,0-0.8,0.1-1.1,0.1l0.1-1.1
			c0-0.3,0.1-0.7,0.1-1.2c0-0.5,0-1,0-1.5s0-1.1,0-1.7C181.3,29.3,181.3,28.8,181.3,28.3z"/>
		<path class="st6" d="M200.3,35.3c-0.2-0.1-0.5-0.1-0.7-0.1c-0.2,0-0.5-0.1-0.7-0.1c-0.2,0-0.5,0-0.7,0.1c-0.2,0-0.4,0.1-0.6,0.1
			l1.2-2.8c0.2-0.4,0.4-0.9,0.7-1.5c0.2-0.6,0.5-1.1,0.7-1.8c0.3-0.6,0.5-1.3,0.8-2c0.3-0.7,0.6-1.4,0.8-2.1
			c0.2-0.4,0.3-0.8,0.5-1.4s0.4-1,0.6-1.5c0.2-0.5,0.3-0.9,0.5-1.3c0.2-0.4,0.3-0.7,0.3-0.9c0.2,0.1,0.5,0.1,0.7,0.1
			c0.3,0,0.5,0.1,0.7,0.1c0.3,0,0.5,0,0.8-0.1c0.3,0,0.5-0.1,0.7-0.1c0.2,0.5,0.3,1.1,0.6,1.8c0.2,0.7,0.5,1.4,0.8,2.2
			c0.3,0.7,0.6,1.5,0.8,2.3c0.3,0.7,0.6,1.5,0.8,2.1c0.3,0.7,0.6,1.4,0.8,2c0.2,0.6,0.5,1.1,0.7,1.6c0.2,0.5,0.4,1,0.7,1.6
			c0.2,0.5,0.5,1.1,0.8,1.7c-0.4-0.1-0.9-0.1-1.4-0.2c-0.5,0-1,0-1.4,0c-0.5,0-0.9,0-1.4,0.1c-0.5,0-0.9,0.1-1.4,0.1
			c-0.1-0.5-0.3-1-0.4-1.5c-0.1-0.5-0.3-1-0.5-1.5c-0.5,0-0.9,0-1.4,0c-0.5,0-0.9,0-1.4,0c-0.4,0-0.7,0-1.1,0c-0.4,0-0.7,0-1.1,0
			c-0.2,0.5-0.4,1-0.5,1.5S200.5,34.8,200.3,35.3z M201.9,30.4c0.2,0,0.3,0,0.5,0c0.2,0,0.3,0,0.5,0h0.9h0.9c0.2,0,0.3,0,0.5,0
			c0.2,0,0.3,0,0.5,0l-1.8-4.9L201.9,30.4z"/>
	</g>
</g>
</svg>
